<svg xmlns="http://www.w3.org/2000/svg" viewBox="0 0 512 512" id="offers"><path d="M452.7 166.9c-5.2-7.3-10.2-14.3-12.4-21.1-2.3-7.2-2.5-16-2.6-25.4-.2-14.2-.4-28.9-8.8-40.4-8.5-11.6-22.4-16.4-36-20.9-8.8-3-17-5.8-23.1-10.2-5.9-4.3-11.1-11.2-16.5-18.6-8.6-11.5-17.4-23.5-31.3-28-13.3-4.3-27.2 0-40.6 4.1-9 2.8-17.6 5.4-25.4 5.4s-16.4-2.6-25.4-5.4c-13.5-4.2-27.4-8.5-40.6-4.1-13.9 4.5-22.7 16.4-31.3 28-5.5 7.3-10.6 14.3-16.5 18.6-6 4.4-14.3 7.2-23.1 10.2-13.5 4.6-27.5 9.3-36 20.9-8.4 11.5-8.6 26.2-8.8 40.4-.1 9.3-.3 18.1-2.6 25.4-2.2 6.8-7.1 13.7-12.4 21.1-8.4 11.8-17.1 24-17.1 38.8s8.7 27 17.1 38.8c5.2 7.3 10.2 14.3 12.4 21.1 2.3 7.2 2.5 16 2.6 25.4.2 14.2.4 28.9 8.8 40.4 8.5 11.6 22.4 16.4 36 20.9 8.8 3 17 5.8 23.1 10.2 5.9 4.3 11.1 11.2 16.5 18.6 3.5 4.7 7 9.4 10.9 13.7v89.1c0 9.9 5.1 18.8 13.7 23.8s18.8 5 27.4.1l39.2-22.3c3.8-2.2 8.6-2.2 12.4 0l39.2 22.3c4.3 2.4 8.9 3.6 13.6 3.6 4.8 0 9.5-1.3 13.8-3.8 8.6-5 13.7-13.9 13.7-23.8v-89.1c3.9-4.3 7.4-9 10.9-13.7 5.5-7.3 10.6-14.3 16.5-18.6 6-4.4 14.3-7.2 23.1-10.2 13.5-4.6 27.5-9.3 36-20.9 8.4-11.5 8.6-26.2 8.8-40.4.1-9.3.3-18.1 2.6-25.4 2.2-6.8 7.1-13.7 12.4-21.1 8.4-11.8 17.1-24 17.1-38.8-.2-14.7-8.9-26.9-17.3-38.7zm-125.2 317c0 4.5-2.3 8.5-6.2 10.8-3.9 2.3-8.6 2.3-12.5.1l-39.2-22.3c-8.4-4.8-18.8-4.8-27.2 0l-39.2 22.3c-3.9 2.2-8.6 2.2-12.5-.1-3.9-2.3-6.2-6.3-6.2-10.8v-77c1.7.9 3.5 1.6 5.4 2.3 3.9 1.3 7.9 1.8 11.9 1.8 9.6 0 19.3-3 28.8-5.9 9-2.8 17.6-5.4 25.4-5.4 7.8 0 16.4 2.6 25.4 5.4 13.5 4.2 27.4 8.5 40.6 4.1 1.9-.6 3.7-1.4 5.4-2.3v77zm113-248c-5.7 7.9-11.5 16.2-14.4 25.1-3 9.4-3.2 19.8-3.3 29.8-.2 12.4-.3 24.2-5.9 31.8-5.7 7.8-16.8 11.6-28.7 15.6-9.4 3.2-19.2 6.5-27.1 12.2-7.8 5.7-13.9 13.9-19.7 21.8-7.5 10.1-14.6 19.6-23.9 22.7-8.8 2.8-19.8-.6-31.6-4.2-9.7-3-19.8-6.1-29.9-6.1s-20.1 3.1-29.9 6.1c-11.7 3.6-22.8 7.1-31.6 4.2-9.3-3-16.4-12.6-23.9-22.7-5.9-7.9-12-16.1-19.7-21.8-7.9-5.7-17.6-9-27.1-12.2-11.8-4-23-7.8-28.7-15.6-5.6-7.6-5.7-19.4-5.9-31.8-.1-10-.3-20.4-3.3-29.8-2.9-9-8.8-17.2-14.4-25.1-7.4-10.3-14.3-20.1-14.3-30.2s6.9-19.8 14.3-30.2c5.7-7.9 11.5-16.2 14.4-25.1 3-9.4 3.2-19.8 3.3-29.8.2-12.4.3-24.2 5.9-31.8 5.7-7.8 16.8-11.6 28.7-15.6 9.4-3.2 19.2-6.5 27.1-12.2 7.8-5.7 13.9-13.9 19.7-21.8 7.5-10.1 14.6-19.6 23.9-22.7 2.3-.7 4.7-1.1 7.2-1.1 7.3 0 15.6 2.6 24.3 5.3 9.7 3 19.8 6.1 29.9 6.1s20.1-3.1 29.9-6.1c11.7-3.6 22.8-7.1 31.6-4.2 9.3 3 16.4 12.6 23.9 22.7 5.9 7.9 12 16.1 19.7 21.8 7.9 5.7 17.6 9 27.1 12.2 11.8 4 23 7.8 28.7 15.6 5.6 7.6 5.7 19.4 5.9 31.8.1 10 .3 20.4 3.3 29.8 2.9 9 8.8 17.2 14.4 25.1 7.4 10.3 14.3 20.1 14.3 30.2.1 10.1-6.8 19.9-14.2 30.2zM256 49.9c-85.9 0-155.8 69.9-155.8 155.8S170.1 361.5 256 361.5s155.8-69.9 155.8-155.8S341.9 49.9 256 49.9zm0 296.6c-77.6 0-140.8-63.2-140.8-140.8S178.4 64.9 256 64.9s140.8 63.2 140.8 140.8S333.6 346.5 256 346.5zm50.4-201.7L201 250.1c-2.9 2.9-2.9 7.7 0 10.6 1.5 1.5 3.4 2.2 5.3 2.2s3.8-.7 5.3-2.2L317 155.4c2.9-2.9 2.9-7.7 0-10.6-3-2.9-7.7-2.9-10.6 0zm-35.9 75.4c-5.4 5.4-8.3 12.5-8.3 20.2s3 14.8 8.3 20.2c5.4 5.4 12.5 8.3 20.2 8.3s14.8-3 20.2-8.3c5.4-5.4 8.3-12.5 8.3-20.2s-3-14.8-8.3-20.2c-11.2-11.1-29.3-11.1-40.4 0zm29.7 29.7c-2.6 2.6-5.9 4-9.5 4s-7-1.4-9.5-4-4-5.9-4-9.5 1.4-7 4-9.5c2.6-2.6 6.1-3.9 9.5-3.9s6.9 1.3 9.5 3.9c2.6 2.6 4 5.9 4 9.5s-1.4 7-4 9.5zm-78.9-50.3c7.6 0 14.8-3 20.2-8.3 5.4-5.4 8.3-12.5 8.3-20.2s-3-14.8-8.3-20.2c-5.4-5.4-12.5-8.3-20.2-8.3s-14.8 3-20.2 8.3c-11.1 11.1-11.1 29.2 0 40.3 5.5 5.4 12.6 8.4 20.2 8.4zm-9.5-38.1c2.6-2.6 5.9-4 9.5-4s7 1.4 9.5 4c2.6 2.6 4 5.9 4 9.5s-1.4 7-4 9.5c-2.6 2.6-5.9 4-9.5 4s-7-1.4-9.5-4c-5.3-5.1-5.3-13.7 0-19z"></path></svg>